<svg height="512" viewBox="0 0 58 60" width="512" xmlns="http://www.w3.org/2000/svg"><g id="Page-1" fill="none" fill-rule="evenodd"><g id="063---Compare-Shops" fill="rgb(0,0,0)" fill-rule="nonzero"><path id="Shape" d="m48 25h-11.59l.3-.29c.2536586-.2536586.3527235-.623374.259878-.969878-.0928454-.3465041-.3634959-.6171546-.71-.71-.346504-.0928455-.7162194.0062194-.969878.259878l-2 2c-.1893127.1877666-.2957983.4433625-.2957983.71s.1064856.5222334.2957983.71l2 2c.1877666.1893127.4433625.2957983.71.2957983s.5222334-.1064856.71-.2957983c.1893127-.1877666.2957983-.4433625.2957983-.71s-.1064856-.5222334-.2957983-.71l-.3-.29h11.59c.5522847 0 1-.4477153 1-1s-.4477153-1-1-1z"/><path id="Shape" d="m57.37 8.84-6-7.68c-.568417-.73198292-1.4432331-1.16016294-2.37-1.16h-16c-.9267669-.00016294-1.801583.42801708-2.37 1.16l-6 7.68c-.4106054.52906172-.6323786 1.1803005-.63 1.85v1.14c.0092817 2.3937379 1.6666834 4.46549 4 5v8.06l-.61-.78c-.582825-.7188179-1.4647732-1.1284256-2.39-1.11h-16c-.9267669-.0001629-1.80158297.4280171-2.37 1.16l-6 7.68c-.41060538.5290617-.63237859 1.1803005-.63 1.85v1.14c-.01406255 2.4124375 1.64842826 4.5113322 4 5.05v17.12c0 1.6568542 1.34314575 3 3 3h20c1.6568542 0 3-1.3431458 3-3v-17.12c1.5635484-.3428145 2.8684485-1.4135018 3.51-2.88h17.49c1.6568542 0 3-1.3431458 3-3v-17.12c2.3333166-.53451 3.9907183-2.6062621 4-5v-1.19c.0023786-.6696995-.2193946-1.32093828-.63-1.85zm-7.56-6.45 5.19 6.61h-5.28l-2.33-7h1.61c.3165096-.00553374.616948.13912181.81.39zm-9.81 6.61h-5.61l2.33-7h3.28zm2-7h3.28l2.33 7h-5.61zm-8 9h6v1c0 1.6568542-1.3431458 3-3 3s-3-1.3431458-3-3zm8 0h6v1c0 1.6568542-1.3431458 3-3 3s-3-1.3431458-3-3zm-9.81-8.61c.193052-.25087819.4934904-.39553374.81-.39h1.63l-2.35 7h-5.28zm-6.19 9.44v-.83h6.0000378l-.0000378 1c.0042641.8504633-.3526441 1.662771-.9819439 2.2348617s-1.4718462.8501964-2.3180561.7651383c-1.5742802-.217945-2.7353251-1.5810978-2.7-3.17zm-.19 13.56 5.19 6.61h-5.28l-2.33-7h1.61c.3165096-.0055337.616948.1391218.81.39zm-9.81 6.61h-5.61l2.33-7h3.28zm2-7h3.28l2.33 7h-5.61zm-8 9h6v1c0 1.6568542-1.3431458 3-3 3s-3-1.3431458-3-3zm8 0h6v1c0 1.6568542-1.3431458 3-3 3s-3-1.3431458-3-3zm-9.81-8.61c.19305197-.2508782.49349043-.3955337.81-.39h1.63l-2.35 7h-5.28zm-6.19 9.44v-.83h6.00003778l-.00003778 1c.00426413.8504633-.35264409 1.662771-.98194391 2.2348617s-1.47184619.8501964-2.31805609.7651383c-1.57428019-.217945-2.73532514-1.5810978-2.7-3.17zm25 23.17h-20c-.55228475 0-1-.4477153-1-1v-17.1c1.19879131-.2449326 2.26616048-.920933 3-1.9.94427191 1.2590292 2.4262135 2 4 2s3.0557281-.7409708 4-2c.9442719 1.2590292 2.4262135 2 4 2s3.0557281-.7409708 4-2c.7338395.979067 1.8012087 1.6550674 3 1.9v17.1c0 .5522847-.4477153 1-1 1zm2.3-20c-.8462099.0850581-1.6887563-.1930476-2.3180561-.7651383s-.986208-1.3843984-.9819439-2.2348617l-.0000378-1h6.0000378v.83c.0353251 1.5889022-1.1257198 2.952055-2.7 3.17zm21.7-3h-17c.0048254-.0565639.0048254-.1134361 0-.17v-1.14c.0023786-.6696995-.2193946-1.3209383-.63-1.85l-3.37-4.33v-10.64c1.1985639-.2264959 2.2688506-.8936413 3-1.87.9442719 1.2590292 2.4262135 2 4 2s3.0557281-.7409708 4-2c.9442719 1.2590292 2.4262135 2 4 2s3.0557281-.7409708 4-2c.7331392.9741887 1.8025081 1.6407621 3 1.87v17.13c0 .2652165-.1053568.5195704-.2928932.7071068s-.4418903.2928932-.7071068.2928932zm2.3-20c-.8462099.0850581-1.6887563-.1930476-2.3180561-.7651383s-.986208-1.3843984-.9819439-2.2348617l-.0000378-1h6.0000378v.83c.0353251 1.5889022-1.1257198 2.952055-2.7 3.17z"/><path id="Shape" d="m22.71 46.29c-.3921222-.3921222-1.0278778-.3921222-1.42 0s-.3921222 1.0278778 0 1.42l.3.29h-11.59c-.55228475 0-1 .4477153-1 1s.44771525 1 1 1h11.59l-.3.29c-.1893127.1877666-.2957983.4433625-.2957983.71s.1064856.5222334.2957983.71c.1877666.1893127.4433625.2957983.71.2957983s.5222334-.1064856.71-.2957983l2-2c.1893127-.1877666.2957983-.4433625.2957983-.71s-.1064856-.5222334-.2957983-.71z"/></g></g></svg>