<svg id="Layer_1" enable-background="new 0 0 455 455" height="512" viewBox="0 0 455 455" width="512" xmlns="http://www.w3.org/2000/svg"><path d="m448.038 237.83-27.902-40.879c-7.457-10.927-19.809-17.451-33.038-17.451h-54.098c-4.418 0-8 3.582-8 8s3.582 8 8 8h11v35c0 17.645 14.355 32 32 32h24c4.418 0 8-3.582 8-8s-3.582-8-8-8h-24c-8.822 0-16-7.178-16-16v-35h27.098c7.938 0 15.349 3.914 19.823 10.471l27.901 40.878c2.733 4.005 4.178 8.684 4.178 13.531v71.12h-11.679c-3.821-22.671-23.579-40-47.321-40-26.468 0-48 21.533-48 48s21.532 48 48 48c23.741 0 43.5-17.329 47.321-40h19.679c4.418 0 8-3.582 8-8v-79.12c0-8.078-2.407-15.876-6.962-22.55zm-68.038 133.67c-17.645 0-32-14.355-32-32s14.355-32 32-32 32 14.355 32 32-14.355 32-32 32zm-69-272v198c0 4.418-3.582 8-8 8s-8-3.582-8-8v-198c0-8.822-7.178-16-16-16h-193c-8.822 0-16 7.178-16 16v11h33c4.418 0 8 3.582 8 8s-3.582 8-8 8h-95c-4.418 0-8-3.582-8-8s3.582-8 8-8h46v-11c0-17.645 14.355-32 32-32h193c17.645 0 32 14.355 32 32zm-25 232h-98.679c-3.821-22.671-23.579-40-47.321-40-26.468 0-48 21.533-48 48s21.532 48 48 48c23.741 0 43.5-17.329 47.321-40h98.679c4.418 0 8-3.582 8-8s-3.582-8-8-8zm-146 40c-17.645 0-32-14.355-32-32s14.355-32 32-32 32 14.355 32 32-14.355 32-32 32zm-110-203c0-4.418 3.582-8 8-8h65c4.418 0 8 3.582 8 8s-3.582 8-8 8h-65c-4.418 0-8-3.582-8-8zm77 58h-33.667c-4.418 0-8-3.582-8-8s3.582-8 8-8h33.667c4.418 0 8 3.582 8 8s-3.582 8-8 8zm-89-16h12.667c4.418 0 8 3.582 8 8s-3.582 8-8 8h-12.667c-4.418 0-8-3.582-8-8s3.582-8 8-8zm52 58v71c0 4.418-3.582 8-8 8s-8-3.582-8-8v-63h-46c-4.418 0-8-3.582-8-8s3.582-8 8-8h54c4.418 0 8 3.582 8 8zm57-8c4.418 0 8 3.582 8 8s-3.582 8-8 8h-23c-4.418 0-8-3.582-8-8s3.582-8 8-8zm4-92c0-4.418 3.582-8 8-8h12c4.418 0 8 3.582 8 8s-3.582 8-8 8h-12c-4.418 0-8-3.582-8-8z"/></svg>