<svg id="Capa_1" enable-background="new 0 0 508.004 508.004" height="512" viewBox="0 0 508.004 508.004" width="512" xmlns="http://www.w3.org/2000/svg"><g><g><g><path d="m115.974 186.487c79.527-41.473 91.402-89.455 91.402-114.365 0-40.442-28.635-72.121-65.189-72.121-16.441 0-29.497 5.537-38.498 11.141-9.003-5.604-22.059-11.142-38.5-11.142-36.554 0-65.189 31.68-65.189 72.121 0 17.669 6.326 52.444 48.7 86.827 3.191 2.59 7.878 2.1 10.468-1.089 2.589-3.191 2.101-7.877-1.09-10.467-35.7-28.968-43.194-56.922-43.194-75.271.001-32.095 22.098-57.238 50.306-57.238 15.345 0 27.036 6.117 34.14 11.249 2.601 1.879 6.114 1.879 8.715 0 7.105-5.132 18.795-11.249 34.141-11.249 28.209 0 50.306 25.142 50.306 57.238 0 21.54-10.835 63.327-83.425 101.182-3.291 1.731-7.444 1.744-10.784-.013-5.207-2.716-10.25-5.536-14.992-8.385-3.521-2.115-8.094-.977-10.211 2.547-2.117 3.523-.976 8.094 2.546 10.212 4.996 3.001 10.303 5.97 15.751 8.81 3.773 1.986 8.03 3.036 12.31 3.036 4.281-.001 8.537-1.05 12.287-3.023z"/><path d="m493.417 285.408c-7.666-6.036-16.926-8.675-25.988-8.126 5.313-15.044.805-32.465-12.408-42.872-8.201-6.46-18.132-9.082-27.673-8.083 3.542-14.188-1.233-29.803-13.446-39.422-6.919-5.448-15.157-8.124-23.36-8.185l47.665-60.514c6.331-8.038 9.153-18.059 7.946-28.218-1.208-10.16-6.298-19.242-14.336-25.572-16.593-13.067-40.723-10.201-53.793 6.39l-31.684 40.225.013-.429c.632-20.439-15.518-37.633-36-38.325-9.941-.336-19.41 3.217-26.654 10.006-7.199 6.748-11.343 15.89-11.672 25.75l-4.906 88.161c-.563.512-1.141 1.038-1.699 1.544-33.944 30.84-60.756 55.199-67.54 75.277-9.486 28.081-6.51 57.657 8.581 85.687l-63.52 81.088c-2.535 3.236-1.967 7.913 1.269 10.447 1.361 1.067 2.979 1.584 4.584 1.584 2.209 0 4.395-.979 5.863-2.853l60.127-76.756c12.356 17.798 29.384 34.198 48.217 46.19l45.941 36.183c7.54 5.938 15.81 10.332 24.425 13.232l-19.72 25.304h-193.577l15.013-19.165c2.535-3.236 1.967-7.913-1.269-10.447s-7.913-1.967-10.448 1.269l-24.438 31.196c-1.756 2.241-2.079 5.287-.832 7.847 1.246 2.56 3.844 4.183 6.69 4.183h212.495c2.294 0 4.459-1.058 5.87-2.867l26.245-33.675c3.342.412 6.698.618 10.052.618 24.232-.001 48.246-10.695 64.374-31.171.04-.05.078-.1.116-.151l39.31-52.622c2.46-3.292 1.784-7.955-1.509-10.415-3.292-2.46-7.956-1.785-10.415 1.509l-39.251 52.544c-22.854 28.93-64.966 33.923-93.92 11.118l-46.237-36.417c-.199-.158-.408-.305-.623-.441-31.403-19.889-79.234-69.284-59.31-128.256 5.548-16.421 32.379-40.798 63.448-69.025 14.782-13.43 31.536-28.652 48.29-45.052.228-.224.442-.461.64-.713l65.356-82.974c7.99-10.145 22.746-11.898 32.892-3.906 4.914 3.871 8.028 9.423 8.765 15.635.738 6.212-.987 12.34-4.859 17.254l-66.336 84.217-36.962 46.926c-2.544 3.229-1.987 7.908 1.241 10.451 1.364 1.075 2.987 1.595 4.6 1.595 2.203 0 4.383-.973 5.851-2.838l36.951-46.912c7.998-10.078 22.726-11.801 32.834-3.841 10.144 7.989 11.896 22.742 3.907 32.886l-6.819 8.658-48.286 61.302c-2.544 3.229-1.987 7.908 1.241 10.451 1.364 1.075 2.987 1.595 4.6 1.595 2.203 0 4.383-.973 5.851-2.838l48.182-61.171c8.177-9.786 22.419-11.275 32.444-3.378 10.144 7.989 11.896 22.742 3.907 32.886l-10.09 12.809-34.555 43.871c-2.544 3.229-1.987 7.908 1.241 10.451 1.364 1.075 2.987 1.595 4.6 1.595 2.203 0 4.383-.973 5.851-2.838l34.555-43.871c7.989-10.144 22.744-11.897 32.888-3.906 10.144 7.989 11.896 22.742 3.907 32.886-.04.05-.078.1-.116.151l-17.67 23.654c-2.46 3.292-1.784 7.955 1.509 10.415 3.291 2.46 7.956 1.784 10.415-1.509l17.616-23.58c12.99-16.586 10.108-40.66-6.457-53.706zm-180.451-132.006c-10.178 9.954-20.382 19.493-30.142 28.462l4.068-73.092c.004-.062.006-.122.008-.184.184-5.914 2.661-11.4 6.977-15.446 4.337-4.064 10.024-6.183 15.972-5.991 12.305.417 22.007 10.731 21.629 22.994l-.629 20.554z"/></g></g></g></svg>